<svg xmlns="http://www.w3.org/2000/svg" width="1024" height="1024" viewBox="0 0 512 512"><defs><linearGradient id="s3" gradientUnits="userSpaceOnUse" x1="256" y1="256" x2="256" y2="80"><stop offset="0" stop-color="#FFFFFF" stop-opacity="0"/><stop offset="1" stop-color="#FFFFFF" stop-opacity="0.55"/></linearGradient>
<linearGradient id="c3" x1="0" y1="1" x2="1" y2="0"><stop offset="0" stop-color="#FFFFFF"/><stop offset="1" stop-color="#FFFFFF"/></linearGradient></defs><circle cx="256" cy="256" r="176" fill="none" stroke="#FFFFFF" stroke-opacity="0.45" stroke-width="14"/><circle cx="256" cy="256" r="106" fill="none" stroke="#FFFFFF" stroke-opacity="0.45" stroke-width="14"/><path d="M256 256L256.0 80.0A176 176 0 0 1 426.0 210.4Z" fill="url(#s3)"/><path d="M256 256L256 80" stroke="#FFFFFF" stroke-width="12" stroke-linecap="round"/><path transform="translate(170 164)" d="M0 -36Q0 0 36 0Q0 0 0 36Q0 0 -36 0Q0 0 0 -36Z" fill="#FFFFFF"/><path transform="translate(352 200)" d="M0 -42Q0 0 42 0Q0 0 0 42Q0 0 -42 0Q0 0 0 -42Z" fill="#FFFFFF"/><path transform="translate(326 356)" d="M0 -34Q0 0 34 0Q0 0 0 34Q0 0 -34 0Q0 0 0 -34Z" fill="#FFFFFF"/><circle cx="256" cy="256" r="42" fill="url(#c3)"/><path d="M237 258L251 272L277 241" fill="none" stroke="#070A18" stroke-width="13" stroke-linecap="round" stroke-linejoin="round"/></svg>